<svg xmlns="http://www.w3.org/2000/svg" viewBox="0 0 200 230" width="200" height="230">
  <defs>
    <linearGradient id="bg" x1="0" y1="0" x2="1" y2="1">
      <stop offset="0%" stop-color="#1D2B53"/>
      <stop offset="100%" stop-color="#0F1A2E"/>
    </linearGradient>
    <linearGradient id="orange" x1="0" y1="0" x2="1" y2="1">
      <stop offset="0%" stop-color="#DEA584"/>
      <stop offset="100%" stop-color="#C4784A"/>
    </linearGradient>
  </defs>

  <circle cx="100" cy="100" r="92" fill="url(#bg)" stroke="#DEA584" stroke-width="3"/>

  <polygon points="100,52 138,74 138,118 100,140 62,118 62,74"
           fill="url(#orange)" stroke="#C4784A" stroke-width="2"/>

  <circle cx="82" cy="84" r="9" fill="#1D2B53"/>
  <circle cx="118" cy="84" r="9" fill="#1D2B53"/>
  <circle cx="82" cy="84" r="3.5" fill="#5CCFE6"/>
  <circle cx="118" cy="84" r="3.5" fill="#5CCFE6"/>

  <path d="M62,72 Q34,56 28,78 Q22,100 46,90" fill="url(#orange)" stroke="#C4784A" stroke-width="2"/>
  <path d="M62,96 Q30,106 24,118 Q18,142 46,130" fill="none" stroke="#DEA584" stroke-width="3.5" stroke-linecap="round"/>

  <path d="M138,72 Q166,56 172,78 Q178,100 154,90" fill="url(#orange)" stroke="#C4784A" stroke-width="2"/>
  <path d="M138,96 Q170,106 176,118 Q182,142 154,130" fill="none" stroke="#DEA584" stroke-width="3.5" stroke-linecap="round"/>

  <ellipse cx="100" cy="100" rx="78" ry="28" fill="none" stroke="#5CCFE6" stroke-width="1.5" opacity="0.5" transform="rotate(-20,100,100)"/>
  <ellipse cx="100" cy="100" rx="78" ry="28" fill="none" stroke="#5CCFE6" stroke-width="1.5" opacity="0.5" transform="rotate(20,100,100)"/>

  <circle cx="40" cy="56" r="4.5" fill="#5CCFE6" opacity="0.8"/>
  <circle cx="160" cy="56" r="4.5" fill="#5CCFE6" opacity="0.8"/>
  <circle cx="40" cy="144" r="4.5" fill="#5CCFE6" opacity="0.8"/>
  <circle cx="160" cy="144" r="4.5" fill="#5CCFE6" opacity="0.8"/>
  <circle cx="100" cy="26" r="4.5" fill="#5CCFE6" opacity="0.8"/>
  <circle cx="100" cy="174" r="4.5" fill="#5CCFE6" opacity="0.8"/>

  <text x="100" y="208" text-anchor="middle" font-family="sans-serif" font-size="14" fill="#DEA584" font-weight="bold" letter-spacing="3">RUST RIG AI</text>
</svg>
